<svg xmlns="http://www.w3.org/2000/svg" xmlns:xlink="http://www.w3.org/1999/xlink" viewBox="0 0 1513.63 260.24"><defs><style>.cls-1{fill:#ee2929;}.cls-2{clip-path:url(#clip-path);}.cls-3{fill:#fed300;}.cls-4{fill:#fff;}</style><clipPath id="clip-path"><rect id="_矩形_" data-name="&lt;矩形&gt;" class="cls-1" y="0.65" width="247.68" height="247.68" rx="50.45" ry="50.45"/></clipPath></defs><title>资源 1</title><g id="图层_2" data-name="图层 2"><g id="图层_1-2" data-name="图层 1"><rect id="_矩形_2" data-name="&lt;矩形&gt;" class="cls-1" y="0.65" width="247.68" height="247.68" rx="50.45" ry="50.45"/><g class="cls-2"><path class="cls-3" d="M151.86,52.22l58.52-18.45c4.12,30.73,8.19,61.07,12.26,91.41l-.36.15c-.34-1-.69-1.9-1-2.86-5.65-15.75-13.33-30.33-24.57-42.89A89.57,89.57,0,0,0,155,53.18Z"/><path class="cls-3" d="M93.78,51.94c-17.37,5.24-32.1,14.2-44.09,27.64C37.88,92.82,30,108.23,23.94,124.82l12-91Z"/><circle class="cls-3" cx="123.84" cy="159.55" r="100.69"/><circle class="cls-4" cx="123.84" cy="159.55" r="73.23"/><path d="M172.64,159.26c.48,27.56-23.29,48.09-46.73,49.08C99,209.48,74.88,186.46,75,159.13c.14-24.9,21.34-49.25,50.5-48.4C151.14,111.48,172.63,133,172.64,159.26ZM113.21,183.2l38.05-24-38-24Z"/></g><path class="cls-4" d="M371.43,70.63c-49.26,0-74.39,22.86-74.39,66v83c0,14.7,3.59,18.29,18.27,18.29h6.2c14.69,0,18.27-3.59,18.27-18.29v-83c0-18.29,6.53-25.8,31.65-25.8s31,7.51,31,25.8v83c0,14.7,3.59,18.29,18.27,18.29h6.2c14.69,0,18.27-3.59,18.27-18.29v-83C445.16,92.18,422.33,70.63,371.43,70.63Zm180.74,0c-50.89,0-78.3,25.8-78.3,72.5v26.13c0,48.66,25.12,72.5,78.3,72.5,50.9,0,77.65-25.47,77.65-72.5V143.13C629.82,94.47,605.35,70.63,552.17,70.63Zm34.91,98.63c0,22.53-7.18,32.33-34.91,32.33s-35.56-9.8-35.56-32.33V143.13c0-22.54,7.83-32.33,35.56-32.33s34.91,9.79,34.91,32.33ZM732.92,70.63c-49.27,0-74.39,22.86-74.39,66v83c0,14.7,3.59,18.29,18.27,18.29H683c14.68,0,18.27-3.59,18.27-18.29v-83c0-18.29,6.53-25.8,31.65-25.8s31,7.51,31,25.8v83c0,14.7,3.59,18.29,18.27,18.29h6.2c14.68,0,18.27-3.59,18.27-18.29v-83C806.65,92.18,783.81,70.63,732.92,70.63Zm180.74,0c-50.9,0-78.3,25.8-78.3,72.5v26.13c0,48.66,25.12,72.5,78.3,72.5,50.89,0,77.65-25.47,77.65-72.5V143.13C991.31,94.47,966.84,70.63,913.66,70.63Zm34.91,98.63c0,22.53-7.18,32.33-34.91,32.33s-35.56-9.8-35.56-32.33V143.13c0-22.54,7.83-32.33,35.56-32.33s34.91,9.79,34.91,32.33Z"/><path class="cls-4" d="M1078.42,200.94h-1.63c-10.12,0-14.36-5.23-14.36-21.89V27.52c0-14.7-3.59-18.29-18.27-18.29h-5.87c-14.68,0-18.27,3.59-18.27,18.29v161c0,35.59,18.92,52.58,48.61,52.58a68.29,68.29,0,0,0,9.79-.66c8.81-1.63,11.09-5.22,11.09-18.29V216C1089.51,203.22,1087.23,200.94,1078.42,200.94Z"/><path class="cls-4" d="M1115.61,7.59a25.07,25.07,0,0,0,0,35.93,25,25,0,0,0,35.89,0,25.07,25.07,0,0,0,0-35.93A25,25,0,0,0,1115.61,7.59Z"/><path class="cls-4" d="M1136.49,74.54h-5.87c-14.68,0-18.27,3.6-18.27,18.29V219.55c0,14.7,3.59,18.29,18.27,18.29h5.87c14.68,0,18.27-3.59,18.27-18.29V92.83C1154.76,78.14,1151.17,74.54,1136.49,74.54Z"/><path class="cls-4" d="M1330.61,74.54h-7.18c-14.68,0-18.6,3.6-22.19,18l-21.53,98.63c-2.61,11.76-5.54,13.72-13.7,13.72s-11.09-2.29-13.7-13.72l-21.54-98.63c-3.58-14.37-7.5-18-22.18-18h-7.18c-14.68,0-17.29,3.6-14.35,18L1210.87,196c3.92,17,6.53,24.49,14,33.64,7.83,8.81,20.56,12.08,41.11,12.08s33.28-3.27,40.78-12.41c7.83-9.14,10.44-16.66,14.36-33.31L1345,92.51C1347.9,78.14,1345.29,74.54,1330.61,74.54Z"/><path class="cls-4" d="M1491.77,171.87c15.34,0,19.58-3.27,21.21-18,.33-3.92.65-8.17.65-12.74q0-70.54-71.45-70.54c-50.57,0-76,24.49-76,73.48v26.13c0,50,26.75,71.52,85.15,71.52,16,0,29-1.31,39.8-4.25,14.36-3.59,17.29-6.85,17.29-21.22v-3.6c0-15.35-3.26-18.61-17.29-15.67-14.35,2.94-27.4,4.57-39.48,4.57-30,0-42.73-7.84-42.73-24.82v-4.9Zm-82.86-39.52c0-16.65,10.76-24.82,32-24.82,21.53,0,32.3,8.17,32.3,24.82v4.9h-64.27Z"/></g></g></svg>